<?xml version="1.0" encoding="UTF-8" standalone="no"?>
<!-- Created with Inkscape (http://www.inkscape.org/) -->

<svg
   version="1.1"
   id="svg9"
   width="600"
   height="600"
   viewBox="0 0 600 600"
   sodipodi:docname="logo.svg"
   inkscape:version="1.1.2 (b8e25be833, 2022-02-05)"
   xmlns:inkscape="http://www.inkscape.org/namespaces/inkscape"
   xmlns:sodipodi="http://sodipodi.sourceforge.net/DTD/sodipodi-0.dtd"
   xmlns="http://www.w3.org/2000/svg"
   xmlns:svg="http://www.w3.org/2000/svg">
  <defs
     id="defs13" />
  <sodipodi:namedview
     id="namedview11"
     pagecolor="#ffffff"
     bordercolor="#666666"
     borderopacity="1.0"
     inkscape:pageshadow="2"
     inkscape:pageopacity="0.0"
     inkscape:pagecheckerboard="0"
     showgrid="false"
     inkscape:zoom="1.2983333"
     inkscape:cx="148.26701"
     inkscape:cy="298.07445"
     inkscape:window-width="1920"
     inkscape:window-height="1001"
     inkscape:window-x="-9"
     inkscape:window-y="-9"
     inkscape:window-maximized="1"
     inkscape:current-layer="layer1"
     showguides="true"
     inkscape:guide-bbox="true" />
  <g
     inkscape:groupmode="layer"
     id="layer1"
     inkscape:label="image to move her">
    <path
       style="fill:#eba8c7;fill-opacity:1"
       d="M 352.8414,469.73602 C 348.62917,462.45621 337.79174,443.675 328.75822,428 306.50262,389.38201 272.28533,330.07241 257.50777,304.5 250.83336,292.95 241.57617,276.90258 236.93624,268.83907 L 228.5,254.17814 228.24546,360.08907 C 228.07855,429.53689 227.6482,466 226.99546,466 c -1.51892,0 -1.2741,13.73382 0.25454,14.27976 2.63315,0.94041 0.0447,1.51523 -4.5,0.99934 L 218,480.7399 V 472.86995 465 h 3.5 c 3.15084,0 3.50028,-0.27434 3.50278,-2.75 0.003,-3.28679 -4.01159,-11.25 -5.67206,-11.25 -1.70963,0 -1.79563,-4.62904 -2.1551,-116 l -0.32437,-100.5 -2.67563,-4.5 -2.67562,-4.5 -0.50655,111 c -0.2786,61.05 -0.6161,108.4125 -0.75,105.25 L 210,436 h -4.4631 -4.46311 l -0.0341,-25.75 C 201.02094,396.0875 200.73317,344 200.4002,294.5 l -0.60539,-90 -2.38794,-4 -2.38795,-4 -0.18351,53.5 c -0.17703,51.61343 -0.25929,69.08785 -0.6531,138.75 L 194,421 h -5 -5 v -8 -8 h 4.5 c 2.475,0 4.5,-0.24493 4.5,-0.5443 C 193,403.25469 185.52007,391 184.78701,391 184.35415,391 184,342.83406 184,283.96458 V 176.92916 l -2.99062,-5.21458 -2.99061,-5.21458 -0.25939,90 c -0.14266,49.5 -0.10341,96.6375 0.0872,104.75 l 0.3466,14.75 h -5.54483 -5.54483 l -0.0739,-114.18129 -0.0739,-114.18128 -2.95582,-5.06872 -2.95582,-5.06871 -0.11897,103 c -0.0654,56.65 -0.038,106.9375 0.061,111.75 l 0.17999,8.75 h -5.08308 -5.08309 v -8 -8 h 3.94935 3.94936 l -4.19936,-7.25 -4.19935,-7.25 -0.28029,-106.80081 -0.2803,-106.80081 5.70405,0.30081 5.70405,0.30081 4.6782,8 c 2.57301,4.4 15.39202,26.45 28.48669,49 13.09468,22.55 32.57568,56.075 43.29113,74.5 10.71544,18.425 26.67748,45.875 35.4712,61 8.79372,15.125 19.26142,33.125 23.26157,40 4.00014,6.875 15.11412,26 24.69772,42.5 9.5836,16.5 24.90745,42.85101 34.05299,58.55781 9.14554,15.70679 16.92047,29.31929 17.27761,30.25 0.56833,1.48104 -0.14388,1.69045 -5.70763,1.67821 l -6.35699,-0.014 -7.6586,-13.23601 z M 379.68271,482.25 C 373.44357,471.50088 336.08754,406.73299 317.53599,374.5 303.92433,350.85 285.003,318 275.48858,301.5 265.97416,285 246.39816,251.025 231.98635,226 217.57454,200.975 197.98264,167 188.44878,150.5 178.91493,134 170.8156,119.7125 170.45027,118.75 c -0.58582,-1.54337 0.0289,-1.75 5.20667,-1.75 h 5.87091 l 20.94272,36.25 c 11.51849,19.9375 24.59783,42.55 29.06519,50.25 4.46736,7.7 17.72998,30.65 29.47249,51 68.10138,118.02103 91.1911,158.0042 111.66923,193.37131 10.62738,18.35423 19.32252,33.76673 19.32252,34.25 0,1.06649 -11.702,1.18875 -12.31729,0.12869 z m 11.52572,-13 C 386.84028,461.6875 377.05287,444.7 369.45864,431.5 334.93291,371.48873 324.4848,353.34465 297.47851,306.5 269.10482,257.28347 261.78219,244.56901 216.56054,166 204.05636,144.275 192.7399,124.61987 191.41284,122.32193 190.08578,120.02399 189,117.86502 189,117.52421 c 0,-0.3408 2.80552,-0.48567 6.23449,-0.32193 l 6.2345,0.29772 10.36996,18 c 11.88918,20.63703 48.55997,84.13497 57.17364,99 5.97461,10.31067 24.50489,42.40604 48.20877,83.5 13.1055,22.72019 55.40751,95.97987 81.88716,141.81422 C 406.19883,472.08703 412,482.32453 412,482.56422 412,482.8039 409.10887,483 405.57526,483 h -6.42474 z m 9.37652,-17.54157 C 390.73167,434.54379 372.91784,403.625 360.99866,383 349.07948,362.375 329.72674,328.85 317.99258,308.5 306.25841,288.15 288.7161,257.775 279.00966,241 227.29248,151.62064 208,118.06093 208,117.4771 c 0,-0.26241 2.8125,-0.46387 6.25,-0.44769 l 6.25,0.0294 14.15469,24.7206 c 13.09772,22.87462 37.4794,65.15778 59.80827,103.72059 9.08155,15.68418 32.4626,56.1714 82.00388,142 13.65106,23.65 31.50554,54.55447 39.67663,68.6766 8.17109,14.12213 14.85653,25.93463 14.85653,26.25 0,0.31537 -2.8125,0.55469 -6.25,0.53183 l -6.25,-0.0416 -17.91505,-31.20843 z M 437.25328,481.75 c -0.54538,-0.6875 -4.7078,-7.775 -9.24981,-15.75 -4.54201,-7.975 -11.53571,-20.125 -15.54155,-27 C 405.30183,426.71154 380.22451,383.29664 354.6999,339 347.56918,326.625 332.50247,300.525 321.21831,281 309.93416,261.475 289.92494,226.825 276.75339,204 248.00618,154.18394 243.34387,146.12713 234.11325,130.31475 230.20096,123.61287 227,117.87537 227,117.56475 227,117.25414 229.66724,117 232.92719,117 h 5.9272 l 18.71733,32.25 c 10.29453,17.7375 28.37012,48.9 40.16798,69.25 11.79786,20.35 24.06695,41.5 27.26466,47 16.12891,27.74144 30.46359,52.47476 38.05509,65.66091 L 371.5,345.82182 371.75422,231.41091 372.00844,117 H 377.50422 383 l 0.004,124.25 0.004,124.25 2.99144,4.5 2.99144,4.5 0.004,-128.75 L 389,117 h 5.5 5.5 v 138.94284 138.94284 l 2.25,3.80716 2.25,3.80716 0.25342,-142.7998 0.25341,-142.7998 5.74659,0.2998 5.74658,0.2998 0.25318,153.15352 0.25318,153.15352 2.48477,4.34648 2.48478,4.34648 0.012,-157.75 L 422,117 h 5.5 5.5 V 284.50295 452.0059 l 2.981,4.74705 2.981,4.74705 0.019,-172.25 L 439,117 h 5.5 5.5 v 183 183 h -5.87756 c -3.50652,0 -6.27757,-0.50426 -6.86916,-1.25 z M 205.67017,462.25 C 201.92257,456.28229 201,454.27044 201,452.06574 201,450.28412 201.61893,450 205.5,450 h 4.5 v 8 c 0,4.59891 -0.4198,8 -0.98746,8 -0.5431,0 -2.04717,-1.6875 -3.34237,-3.75 z M 191.5,438 c -1.47719,-2.85658 -1.45452,-3 0.47432,-3 1.58409,0 2.02568,0.65399 2.02568,3 0,1.65 -0.21344,3 -0.47432,3 -0.26088,0 -1.17243,-1.35 -2.02568,-3 z m -20.84609,-36.25 c -1.33672,-2.3375 -2.72608,-5.9375 -3.08747,-8 L 166.90937,390 H 171.95469 177 v 8 c 0,7.27592 -0.17721,8 -1.95785,8 -1.25544,0 -2.82978,-1.52474 -4.38824,-4.25 z m -10.66596,-15.5 c -0.007,-1.5125 -1.10553,-4.6625 -2.44202,-7 L 155.11596,375 H 158.05798 161 v 7 c 0,3.85 -0.225,7 -0.5,7 -0.275,0 -0.50542,-1.2375 -0.51205,-2.75 z"
       id="path213" />
    <path
       style="fill:none;fill-opacity:0.773279"
       id="path10145"
       d="m -11.455331,438.52997 c 5.1469879,12.70312 10.0084738,25.51967 14.9196073,38.31542 3.5283861,9.25199 7.3670117,18.38733 10.6168017,27.7431 0.20916,0.67209 0.404954,1.3485 0.62748,2.01629 0.71705,2.15182 0.906397,2.37853 1.58017,4.62327 0.786737,2.6211 1.38498,5.30495 2.077813,7.95188 0,0 9.813089,-5.32813 9.813089,-5.32813 v 0 c -1.35023,-4.9219 -2.433771,-9.92807 -4.335263,-14.68214 -3.609568,-9.17937 -8.05235,-18.00989 -11.566966,-27.23145 -4.9699533,-12.82151 -9.8706306,-25.70244 -13.7646844,-38.89808 0,0 -9.9680476,5.48984 -9.9680476,5.48984 z" />
    <path
       style="fill:none;fill-opacity:0.773279"
       id="path10147"
       d="m -3.4981134,428.02992 c 0.6784737,17.72048 1.2140862,35.44794 1.7473331,53.17373 0.4159412,12.36908 0.96882934,24.73433 1.23550323,37.108 0,0 9.82302817,-5.06154 9.82302817,-5.06154 v 0 C 8.4550908,501.08996 7.4856671,488.93667 6.895753,476.75973 6.1748081,458.81631 5.5793844,440.84244 6.5789864,422.89538 c 0,0 -10.0770998,5.13454 -10.0770998,5.13454 z" />
  </g>
</svg>
